<svg version="1.2" xmlns="http://www.w3.org/2000/svg" viewBox="0 0 512 512" width="512" height="512">
	<title>In2Touch Unoffical Logo</title>
	<defs>
    <linearGradient id="gradient" gradientTransform="rotate(30)">
      <stop class="stop1" offset="0%" />
      <stop class="stop2" offset="100%" />
    </linearGradient>
	</defs>
	<style>
		.stop1 { stop-color: #3847fd; }
		.stop2 { stop-color: #0ebaaa; }
		.s1 { fill: #ffffff }
		.s2 { fill: #f8ff00 }
	</style>
	<path fill="url(#gradient)" d="m256 512c-141.6 0-256-114.4-256-256 0-141.6 114.4-256 256-256 141.6 0 256 114.4 256 256 0 141.6-114.4 256-256 256z"/>
	<path class="s1" d="m180.1 332h-91v-27.1h29.1v-95.3h-27.6v-27.1h88.3v27.1h-29.1v95.3h30.3zm20.6 0v-149.5h36.3l42.7 90.2-2.4-90.2h29.7 2.2v2.6q-1.2 1.4-1.7 3.1-0.2 1.7-0.2 5.8v138h-33.1l-43.5-96.3v96.3z"/>
	<path class="s2" d="m325.3 332v-24.5q14.4-13.7 25.2-24 10.8-10.3 18.5-18.2 7.9-8.2 12.7-14.9 5-6.7 7.2-13.2 2.4-6.5 2.4-13.9 0-3.6-1-6.5-0.9-2.9-3.1-4.8-2.2-2.2-5.8-3.4-3.3-1.2-8.4-1.2-4.5 0-8.4 1-3.8 0.7-7.2 2.6-3.3 2-6.2 5.1-2.4 3.1-3.1 4.8-0.5 1.7-0.3 3.6l-1.6 2.1-1.7-1.2-22.8-17.5q5.7-9.3 13.9-15.6 8.2-6.2 17.8-9.3 9.8-3.4 20.1-3.4 13.5 0 24.5 5.5 11.3 5.3 18 15.1 6.7 9.6 6.7 22.8 0 8.9-2.1 16.6-2.2 7.7-6.5 14.9-4.1 7.2-10.3 14.9-6.3 7.6-14.9 16.3-8.4 8.6-19 19.2h41.5q4.1 0 5.8-0.5 1.7-0.5 3.1-1.7h2.7v2.2 27.1z"/>
</svg>
